<svg width="24" height="24" viewBox="0 0 24 24" fill="none" xmlns="http://www.w3.org/2000/svg">
<path d="M23.6112 10.7819H23.1041C22.8299 8.26339 21.7004 5.90282 19.8988 4.10118C18.8068 3.00923 17.5092 2.1645 16.0959 1.60697H21.6277C21.7903 2.08851 22.2461 2.43632 22.7818 2.43632C23.4535 2.43632 24 1.88986 24 1.21819C24 0.546514 23.4535 4.68749e-05 22.7818 4.68749e-05C22.246 4.68749e-05 21.7903 0.347859 21.6277 0.829405H13.2181V0.388781C13.2181 0.174093 13.0441 0 12.8293 0H11.1706C10.9559 0 10.7818 0.174047 10.7818 0.388781V0.829405H2.37229C2.20964 0.347859 1.75392 4.68749e-05 1.21814 4.68749e-05C0.546468 4.68749e-05 0 0.546514 0 1.21819C0 1.88986 0.546468 2.43632 1.21814 2.43632C1.75392 2.43632 2.20964 2.08851 2.37229 1.60697H7.90414C6.49072 2.1645 5.19318 3.00923 4.10118 4.10127C2.29954 5.90286 1.17009 8.26344 0.895826 10.7819H0.388781C0.174093 10.7819 0 10.956 0 11.1707V12.8295C0 13.0442 0.174047 13.2183 0.388781 13.2183H2.0475C2.26218 13.2183 2.43628 13.0442 2.43628 12.8295V11.1707C2.43628 10.956 2.26223 10.7819 2.0475 10.7819H1.67803C1.94892 8.47077 2.99479 6.30725 4.65102 4.65107C6.30716 2.99493 8.47072 1.94901 10.7818 1.67812V2.04759C10.7818 2.19928 10.8689 2.33034 10.9957 2.39442L5.84179 13.4951C5.78108 13.6258 5.79772 13.7794 5.88496 13.8941C5.91135 13.9289 8.4477 17.3017 8.69239 20.8038C8.21914 20.971 7.87906 21.4227 7.87906 21.9525V22.7819C7.87906 23.4535 8.42553 24 9.0972 24H14.9028C15.5745 24 16.1209 23.4535 16.1209 22.7819V21.9525C16.1209 21.4227 15.7809 20.9711 15.3077 20.8038C15.5524 17.3072 18.0887 13.9288 18.1151 13.8942C18.2023 13.7795 18.219 13.6259 18.1583 13.4951L13.0043 2.39437C13.131 2.33029 13.2181 2.19923 13.2181 2.04754V1.67807C15.5293 1.94897 17.6928 2.99484 19.349 4.65107C21.0052 6.30725 22.051 8.47081 22.3219 10.7819H21.9525C21.7378 10.7819 21.5637 10.956 21.5637 11.1707V12.8295C21.5637 13.0442 21.7377 13.2183 21.9525 13.2183H23.6112C23.8259 13.2183 24 13.0442 24 12.8295V11.1707C24 10.9559 23.8259 10.7819 23.6112 10.7819ZM22.7818 0.777561C23.0248 0.777561 23.2224 0.975232 23.2224 1.21819C23.2224 1.46114 23.0248 1.65881 22.7818 1.65881C22.5389 1.65881 22.3412 1.46114 22.3412 1.21819C22.3412 0.975232 22.5389 0.777561 22.7818 0.777561ZM1.21814 1.65881C0.975186 1.65881 0.777514 1.46114 0.777514 1.21819C0.777514 0.975232 0.975186 0.777561 1.21814 0.777561C1.46109 0.777561 1.65876 0.975232 1.65876 1.21819C1.65876 1.46114 1.46109 1.65881 1.21814 1.65881ZM1.65876 12.4406H0.777514V11.5594H1.24734C1.24823 11.5594 1.24912 11.5595 1.24997 11.5595C1.25072 11.5595 1.25137 11.5594 1.25208 11.5594H1.65872L1.65876 12.4406ZM11.5594 0.777561H12.4406V1.65876H11.5594V0.777561ZM15.3434 21.9525V22.7819C15.3434 23.0248 15.1458 23.2225 14.9028 23.2225H9.09715C8.8542 23.2225 8.65653 23.0248 8.65653 22.7819V21.9525C8.65653 21.7096 8.85415 21.5119 9.09715 21.5119H14.9028C15.1458 21.5119 15.3434 21.7096 15.3434 21.9525ZM17.3564 13.6145C16.7947 14.4035 14.766 17.4591 14.5332 20.7343H9.46676C9.23393 17.4591 7.20524 14.4035 6.64353 13.6145L11.6112 2.91492V12.0731C10.898 12.2479 10.3671 12.8924 10.3671 13.6587C10.3671 14.5591 11.0996 15.2916 12 15.2916C12.9004 15.2916 13.6328 14.5591 13.6328 13.6587C13.6328 12.8923 13.102 12.248 12.3888 12.0731V2.91492L17.3564 13.6145ZM12 12.8035C12.4716 12.8035 12.8553 13.1871 12.8553 13.6587C12.8553 14.1303 12.4716 14.514 12 14.514C11.5284 14.514 11.1447 14.1303 11.1447 13.6587C11.1447 13.1871 11.5284 12.8035 12 12.8035ZM23.2224 12.4406H22.3412V11.5594H22.7479C22.7487 11.5594 22.7493 11.5595 22.75 11.5595C22.7509 11.5595 22.7518 11.5594 22.7527 11.5594H23.2224L23.2224 12.4406Z" fill="white"/>
</svg>
