<svg width="138" height="32" viewBox="0 0 138 32" fill="none" xmlns="http://www.w3.org/2000/svg">
<path d="M39.3854 15.8909C40.3886 15.382 40.825 14.5244 40.825 13.5645C40.825 11.9218 39.5597 10.6712 37.3643 10.6712H32.0146V21.3429H37.3643C39.6908 21.3429 40.9706 20.0343 40.9706 18.3332C40.9706 17.2867 40.4617 16.4286 39.3854 15.8909ZM10.6712 32H0V21.3429H10.6712V32ZM10.6712 10.6712H0V0H10.6712V10.6712ZM21.3429 21.3429H10.6712V10.6712H21.3429V21.3429ZM109.797 10.6712V21.3429H111.832V13.172L115.845 20.3251H116.979L121.006 13.1286V21.3429H123.027V10.6712H120.308L116.456 17.65L112.574 10.6712H109.797ZM127.505 21.3429H129.744L135.283 13.4048V21.3429H137.319V10.6712H135.08L129.526 18.6094V10.6712H127.505V21.3429ZM33.9918 19.6272V16.8211H37.1466C38.2804 16.8211 38.8765 17.2867 38.8765 18.1735C38.8765 19.1183 38.2804 19.6272 37.1466 19.6272H33.9918ZM33.9918 15.1059V12.3723H37.132C38.1932 12.3723 38.7314 12.8233 38.7314 13.6809C38.7314 14.5969 38.1932 15.1059 37.132 15.1059H33.9918ZM43.6165 16.0073C43.6165 19.2055 45.9278 21.5465 49.1118 21.5465C51.4529 21.5465 53.4588 20.1361 54.1426 18.1589H52.0489C51.5108 19.0749 50.5947 19.671 49.1118 19.671C47.4399 19.671 46.0296 18.4935 45.7388 16.8357H54.4767C54.7674 12.9538 52.5866 10.4535 49.0826 10.4535C45.9278 10.4535 43.6165 12.8087 43.6165 16.0073ZM45.7535 15.062C46.0296 13.4194 47.3382 12.2418 49.0393 12.2418C50.7983 12.2418 52.1361 13.3322 52.3105 15.062H45.7535ZM58.0099 10.6712V21.3429H60.0012V17.7956L61.5134 16.3852L65.4824 21.3429H68.1434L63.0255 14.9749L67.6925 10.6712H65.0027L60.0012 15.4546V10.6712H58.0099ZM79.12 10.6712H69.6259V12.5905H73.3626V21.3429H75.3837V12.5905H79.12V10.6712ZM86.4913 21.5465C89.6753 21.5465 92.1176 19.1329 92.1176 16.0073C92.1176 12.8666 89.6753 10.4535 86.4913 10.4535C83.2926 10.4535 80.8065 12.8666 80.8065 16.0073C80.8065 19.1329 83.2926 21.5465 86.4913 21.5465ZM82.9001 16.0073C82.9001 13.9278 84.4556 12.329 86.4913 12.329C88.4977 12.329 90.024 13.9278 90.024 16.0073C90.024 18.0717 88.4977 19.671 86.4913 19.671C84.4556 19.671 82.9001 18.0717 82.9001 16.0073ZM95.6216 10.6712V24.9633H97.6568V19.7436C98.529 20.8632 99.8376 21.5465 101.263 21.5465C104.097 21.5465 106.293 19.2493 106.293 16.0073C106.293 12.7648 104.098 10.4535 101.263 10.4535C99.765 10.4535 98.4418 11.2094 97.555 12.4015V10.6712H95.6216ZM97.5842 16.0073C97.5842 13.8698 98.9946 12.329 100.913 12.329C102.819 12.329 104.199 13.8698 104.199 16.0073C104.199 18.1443 102.819 19.671 100.913 19.671C98.9946 19.671 97.5842 18.1443 97.5842 16.0073Z" fill="#0074FD"/>
</svg>
